<svg width="32" height="32" viewBox="0 0 32 32" fill="none" xmlns="http://www.w3.org/2000/svg">
<g clip-path="url(#clip0)">
<path d="M0.022789 2.73681C0.135914 2.23019 0.638475 1.91113 1.14479 2.02419L6.73647 3.27194C6.7441 3.27363 6.75129 3.27625 6.75885 3.27813C6.77866 3.28306 6.79835 3.28819 6.81773 3.29444C6.83066 3.2985 6.8431 3.30325 6.85573 3.30794C6.87129 3.31362 6.88679 3.31938 6.90198 3.32594C6.91673 3.33219 6.93091 3.33919 6.94522 3.34613C6.95779 3.35231 6.97041 3.3585 6.98273 3.36525C6.99766 3.37338 7.0121 3.38213 7.02648 3.391C7.03798 3.39806 7.04935 3.40525 7.06048 3.41281C7.07404 3.422 7.0871 3.43169 7.1001 3.44156C7.11166 3.45031 7.12316 3.45931 7.13429 3.46863C7.1456 3.47806 7.15654 3.48794 7.16735 3.49788C7.17941 3.50888 7.19116 3.52013 7.2026 3.53175C7.21166 3.541 7.22041 3.55056 7.22904 3.56013C7.24098 3.57344 7.25273 3.58687 7.26398 3.60088C7.27141 3.61012 7.27854 3.61969 7.2856 3.62925C7.29654 3.644 7.30729 3.65888 7.31735 3.67438C7.32416 3.68481 7.3306 3.69556 7.33698 3.70625C7.34591 3.72119 7.35472 3.73613 7.36285 3.75163C7.36979 3.76488 7.37616 3.77844 7.38247 3.792C7.38879 3.80556 7.39516 3.81894 7.40085 3.83288C7.40798 3.85025 7.41416 3.86794 7.42029 3.88581C7.42316 3.89425 7.42679 3.90225 7.42941 3.91081L8.59879 7.67875H30.207C30.7824 7.67875 31.308 7.94444 31.6493 8.40762C31.9905 8.87081 32.0885 9.45162 31.9179 10.0011L28.832 19.9448C28.598 20.6987 27.9104 21.2052 27.1211 21.2052H12.7967L13.0737 22.0978H29.054C29.573 22.0978 29.9939 22.5186 29.9939 23.0377C29.9939 23.5568 29.5731 23.9777 29.054 23.9777H12.5182C12.4976 23.9777 12.4774 23.9759 12.4572 23.9746C12.4317 23.9767 12.4063 23.9779 12.3811 23.9779C11.9802 23.9779 11.6088 23.7194 11.4837 23.3164L10.4374 19.9449V19.9449L9.76329 17.7728L5.79566 4.98819L0.735538 3.859C0.228725 3.74581 -0.0902748 3.24344 0.022789 2.73681ZM24.0892 19.3252H27.0559L28.2503 15.4768H24.0892V19.3252ZM24.0892 13.597H28.8337L30.087 9.55856H24.0893V13.597H24.0892ZM17.2592 19.3252H22.2094V15.4768H17.2592V19.3252ZM17.2592 13.597H22.2094V9.55856H17.2592V13.597ZM11.3415 16.5158L12.2134 19.3252H15.3793V15.4768H11.019L11.3415 16.5158ZM10.4357 13.597H15.3794V9.55856H9.18241L10.4357 13.597Z" fill="white"/>
<path d="M25.1496 24.4137C26.6893 24.4137 27.942 25.6664 27.942 27.2061C27.942 28.7459 26.6893 29.9986 25.1496 29.9986C23.6099 29.9986 22.3572 28.7459 22.3572 27.2061C22.3572 25.6664 23.6098 24.4137 25.1496 24.4137ZM25.1496 28.1188C25.6528 28.1188 26.0622 27.7094 26.0622 27.2061C26.0622 26.7029 25.6528 26.2935 25.1496 26.2935C24.6464 26.2935 24.237 26.7029 24.237 27.2061C24.237 27.7094 24.6464 28.1188 25.1496 28.1188Z" fill="white"/>
<path d="M15.8131 24.4137C17.3528 24.4137 18.6055 25.6664 18.6055 27.2061C18.6055 28.7459 17.3528 29.9986 15.8131 29.9986C14.2733 29.9986 13.0206 28.7459 13.0206 27.2061C13.0206 25.6664 14.2733 24.4137 15.8131 24.4137ZM15.8131 28.1188C16.3163 28.1188 16.7257 27.7094 16.7257 27.2061C16.7257 26.7029 16.3163 26.2935 15.8131 26.2935C15.3098 26.2935 14.9005 26.7029 14.9005 27.2061C14.9005 27.7094 15.3099 28.1188 15.8131 28.1188Z" fill="white"/>
</g>
<defs>
<clipPath id="clip0">
<rect width="32" height="32" fill="white" transform="matrix(-1 0 0 1 32 0)"/>
</clipPath>
</defs>
</svg>
