<svg width="36" height="36" viewBox="0 0 36 36" fill="none" xmlns="http://www.w3.org/2000/svg">
<path d="M25.2754 0H10.7246C4.81103 0 0 4.81103 0 10.7246V25.2754C0 31.189 4.81103 36 10.7246 36H25.2754C31.189 36 36 31.189 36 25.2754V10.7246C35.9999 4.81103 31.1889 0 25.2754 0ZM32.3784 25.2754C32.3784 29.1982 29.1982 32.3784 25.2754 32.3784H10.7246C6.80175 32.3784 3.6216 29.1982 3.6216 25.2754V10.7246C3.6216 6.80169 6.80175 3.6216 10.7246 3.6216H25.2754C29.1982 3.6216 32.3784 6.80169 32.3784 10.7246V25.2754Z" fill="white"/>
<path d="M18 8.68915C12.8659 8.68915 8.68909 12.866 8.68909 18C8.68909 23.1339 12.8659 27.3108 18 27.3108C23.134 27.3108 27.3108 23.134 27.3108 18C27.3108 12.8659 23.134 8.68915 18 8.68915ZM18 23.6893C14.8578 23.6893 12.3107 21.1422 12.3107 18C12.3107 14.8579 14.8579 12.3107 18 12.3107C21.1421 12.3107 23.6892 14.8579 23.6892 18C23.6892 21.1421 21.142 23.6893 18 23.6893Z" fill="white"/>
<path d="M27.3289 10.9901C28.561 10.9901 29.5599 9.99122 29.5599 8.75903C29.5599 7.52684 28.561 6.52795 27.3289 6.52795C26.0967 6.52795 25.0978 7.52684 25.0978 8.75903C25.0978 9.99122 26.0967 10.9901 27.3289 10.9901Z" fill="white"/>
</svg>
