<svg width="21" height="24" viewBox="0 0 21 24" fill="none" xmlns="http://www.w3.org/2000/svg">
<path d="M0.62 0.815998H12.68C15.416 0.815998 17.48 1.56 18.872 3.048C20.264 4.536 20.96 6.54 20.96 9.06C20.96 10.596 20.576 11.964 19.808 13.164C19.04 14.34 17.996 15.252 16.676 15.9C16.94 16.116 17.168 16.368 17.36 16.656C17.552 16.944 17.768 17.364 18.008 17.916L20.672 24H13.616L11.168 18.42C10.976 17.988 10.736 17.688 10.448 17.52C10.184 17.328 9.8 17.232 9.296 17.232H7.388V24H0.62V0.815998ZM10.952 12.048C11.936 12.048 12.692 11.796 13.22 11.292C13.772 10.764 14.048 10.02 14.048 9.06C14.048 7.02 13.088 6 11.168 6H7.388V12.048H10.952Z" fill="white"/>
</svg>
