<svg width="36" height="36" viewBox="0 0 36 36" fill="none" xmlns="http://www.w3.org/2000/svg">
<g clip-path="url(#clip0)">
<path d="M0.78299 26.811C1.51799 29.418 3.76649 29.895 3.91649 29.9865C7.61699 30.9945 28.359 30.9975 32.115 29.9865C34.6875 29.2425 35.16 26.961 35.2485 26.811C36.228 21.6 36.2925 14.8065 35.2035 8.89353L35.2485 9.18753C34.5135 6.58053 32.265 6.10353 32.115 6.01203C28.464 5.02053 7.66799 4.98303 3.91649 6.01203C1.34399 6.75753 0.87149 9.03753 0.78299 9.18753C-0.265511 14.664 -0.318011 20.9475 0.78299 26.811ZM14.412 23.4765V12.537L23.811 18.015L14.412 23.4765Z" fill="white"/>
</g>
<defs>
<clipPath id="clip0">
<rect width="36" height="36" fill="white"/>
</clipPath>
</defs>
</svg>
